<svg width="90" height="170" viewBox="0 0 90 170" fill="none" xmlns="http://www.w3.org/2000/svg">
<rect x="15.0734" y="142.853" width="20" height="100" rx="10" transform="rotate(-135 15.0734 142.853)" fill="white"/>
<rect x="70.7107" y="84.8528" width="100" height="20" rx="10" transform="rotate(-135 70.7107 84.8528)" fill="white"/>
<rect x="24" y="79" width="20" height="74" rx="10" transform="rotate(180 24 79)" fill="white"/>
<rect x="24" y="105" width="20" height="20" rx="10" transform="rotate(180 24 105)" fill="white"/>
<path d="M9.125 165H3.21094V149H9.11719C10.7474 149 12.151 149.32 13.3281 149.961C14.5104 150.596 15.4219 151.513 16.0625 152.711C16.7031 153.904 17.0234 155.331 17.0234 156.992C17.0234 158.659 16.7031 160.091 16.0625 161.289C15.4271 162.487 14.5182 163.406 13.3359 164.047C12.1536 164.682 10.75 165 9.125 165ZM7.07813 161.703H8.97656C9.8724 161.703 10.6302 161.552 11.25 161.25C11.875 160.943 12.3464 160.445 12.6641 159.758C12.987 159.065 13.1484 158.143 13.1484 156.992C13.1484 155.841 12.987 154.924 12.6641 154.242C12.3411 153.555 11.8646 153.06 11.2344 152.758C10.6094 152.451 9.83854 152.297 8.92188 152.297H7.07813V161.703ZM19.2813 165V149H30.4375V152.141H23.1484V155.422H29.8672V158.57H23.1484V161.859H30.4375V165H19.2813ZM36.4922 149L40.0703 160.719H40.2031L43.7813 149H48.1094L42.7109 165H37.5625L32.1641 149H36.4922ZM53.6992 149V165H49.832V149H53.6992ZM69.7441 149V165H66.4629L60.0957 155.766H59.9941V165H56.127V149H59.4551L65.752 158.219H65.8848V149H69.7441ZM72.1758 165V149H83.332V152.141H76.043V155.422H82.7617V158.57H76.043V161.859H83.332V165H72.1758Z" fill="white"/>
<path d="M40.9242 143C36.4906 143 34.2504 137.658 37.358 134.495L77.4339 93.7164C80.5709 90.5244 86 92.7456 86 97.2211V138C86 140.761 83.7614 143 81 143H40.9242Z" fill="white"/>
<path d="M41.7201 5C37.1774 5 34.9886 10.5684 38.3154 13.6617L77.5953 50.1851C80.7937 53.1591 86 50.8908 86 46.5234V10C86 7.23858 83.7614 5 81 5H41.7201Z" fill="white"/>
</svg>
